<?xml version="1.0" encoding="UTF-8" standalone="no"?><!DOCTYPE svg PUBLIC "-//W3C//DTD SVG 1.1//EN" "http://www.w3.org/Graphics/SVG/1.1/DTD/svg11.dtd"><svg width="100%" height="100%" viewBox="0 0 1309 1297" version="1.1" xmlns="http://www.w3.org/2000/svg" xmlns:xlink="http://www.w3.org/1999/xlink" xml:space="preserve" xmlns:serif="http://www.serif.com/" style="fill-rule:evenodd;clip-rule:evenodd;stroke-linejoin:round;stroke-miterlimit:2;"><path d="M32.449,1296.957c-10.951,0.001 -20.902,0.001 -30.655,0.001c-2.322,-8.412 -2.46,-899.08 -0.005,-911.162c108.412,85.984 215.598,172.326 325.287,259.838l0,-258.541c0.768,-0.376 1.536,-0.752 2.304,-1.128c54.022,42.559 107.602,85.68 161.293,128.66c53.793,43.062 107.661,86.031 163.047,130.28l0,-260.623c29.977,22.414 56.792,45.074 84.36,66.748c28.028,22.035 55.754,44.454 83.597,66.724c27.584,22.063 55.158,44.137 82.718,66.23c27.478,22.027 54.933,44.082 83.8,67.25c23.499,-218.107 46.802,-434.387 70.165,-651.232l197.201,0c0.758,7.181 1.605,14.01 2.181,20.862c2.233,26.544 4.359,53.097 6.565,79.643c2.482,29.863 5.044,59.72 7.503,89.584c2.214,26.881 4.315,53.771 6.505,80.654c2.488,30.532 5.036,61.059 7.526,91.591c1.516,18.586 2.921,37.181 4.461,55.765c3.163,38.161 6.409,76.314 9.573,114.475c2.256,27.213 4.977,54.403 6.495,81.659c1.5,26.919 2.417,53.908 2.442,80.867c0.183,197.311 0.08,394.622 0.047,591.933c-0,2.93 -0.252,5.859 -0.439,9.922c-425.311,0 -850.143,0 -1275.973,0.001m216.995,-380.484c176.604,0.016 353.208,0.031 529.811,0.045c2.332,0 4.665,0.008 6.996,-0.049c0.653,-0.016 1.315,-0.21 1.946,-0.409c0.288,-0.091 0.516,-0.384 0.76,-0.597c0.251,-0.219 0.49,-0.453 0.496,-0.459l0,-130.548l-641.596,0c-1.949,15.064 -1.19,124.709 1.019,132.013c32.697,0 65.632,0 100.567,0.003m812,-132.294l-132.296,0l0,131.676l250.894,0l0,-131.676c-39.397,0 -77.997,0 -118.597,-0m-532.51,271.923l0,113.87l260.428,0l0,-124.999l-259.831,0c-0.219,3.403 -0.406,6.31 -0.597,11.129m-243.49,-11.553l-137.835,0l0,125.507l252.175,0c0.057,-42.068 0.053,-83.473 -0.008,-125.506c-38.428,0 -75.38,0 -114.332,-0m895.321,114.998c-0.035,-38.145 -0.071,-76.291 -0.106,-114.271c-21.068,-2.144 -244.82,-1.157 -251.52,0.944l0,123.784l251.188,0c0.176,-3.288 0.316,-5.903 0.439,-10.457Z" style="fill:#7b7b7d;fill-rule:nonzero;"/></svg>